<?xml version="1.0" encoding="utf-8"?>
<!DOCTYPE svg PUBLIC "-//W3C//DTD SVG 1.0//EN" "http://www.w3.org/TR/2001/REC-SVG-20010904/DTD/svg10.dtd">
<svg version="1.0" xmlns="http://www.w3.org/2000/svg" xmlns:xlink="http://www.w3.org/1999/xlink" x="0px" y="0px" viewBox="0 0 372 40" enable-background="new 0 0 372 40" xml:space="preserve">

<g id="Powered_by_forio_epicenter">
	<polygon fill="#C9DFFF" points="337,18.291 337,21.291 362,28.291 362,25.291 	"/>
	<polygon fill="#C9DFFF" points="337,25 337,28 362,35 362,32 	"/>
	<polygon fill="#70A9FF" points="337,24 337,28 362,21 354.857,19 	"/>
	<polygon fill="#C9DFFF" points="337,11 337,14 362,21 362,18 	"/>
	<polygon fill="#70A9FF" points="337,14 337,10 362,3 362,7 	"/>
	<polygon fill="#70A9FF" points="337,21.208 337,17.208 362,10.208 362,14.208 	"/>
	<g>
		<path fill="#404042" d="M325.404,16.878c-0.237-0.078-0.736-0.133-1.236-0.133c-1.5,0-2.684,1.08-3.104,1.842v8.024l-3.419-0.002
			V13.852h3.288v1.289c0.763-0.947,2.157-1.551,3.709-1.551c0.5,0,0.789,0.053,1.157,0.104L325.404,16.878z"/>
		<path fill="#404042" d="M251.823,17.749c0.26-0.32,0.584-0.564,0.991-0.748c0.41-0.184,0.896-0.277,1.443-0.277
			c0.479,0,0.921,0.092,1.313,0.273c0.39,0.184,0.765,0.486,1.114,0.906l0.405,0.486l2.466-2.188l-0.424-0.459
			c-0.635-0.69-1.387-1.206-2.232-1.534c-0.829-0.32-1.718-0.482-2.642-0.482c-0.962,0-1.856,0.168-2.656,0.502
			c-0.804,0.334-1.504,0.807-2.084,1.404c-0.579,0.597-1.033,1.312-1.348,2.12c-0.313,0.805-0.472,1.69-0.472,2.63
			c0,0.959,0.159,1.852,0.472,2.656c0.313,0.809,0.762,1.52,1.332,2.117c0.575,0.604,1.28,1.074,2.096,1.4
			c0.805,0.322,1.701,0.486,2.661,0.486c0.908,0,1.785-0.164,2.606-0.486c0.842-0.328,1.584-0.855,2.205-1.566l0.387-0.445
			l-2.361-2.238l-0.412,0.568c-0.57,0.787-1.363,1.17-2.425,1.17c-0.497,0-0.947-0.092-1.338-0.273
			c-0.398-0.186-0.728-0.436-1.008-0.764c-0.287-0.336-0.514-0.73-0.676-1.176c-0.163-0.445-0.245-0.932-0.245-1.447
			c0-0.525,0.073-1.02,0.217-1.474C251.346,18.474,251.553,18.081,251.823,17.749z"/>
		<path fill="#404042" d="M287.185,15.102c-0.421-0.479-0.955-0.854-1.589-1.119c-0.621-0.26-1.357-0.393-2.189-0.393
			c-0.533,0-1.039,0.07-1.504,0.211c-0.459,0.139-0.881,0.326-1.254,0.559c-0.198,0.125-0.385,0.26-0.557,0.404
			c-0.002-0.088-0.002-0.176-0.002-0.264v-0.615h-3.047v12.727h3.244v-6.215c0-0.602,0.062-1.152,0.188-1.642
			c0.119-0.461,0.3-0.861,0.54-1.191c0.228-0.311,0.513-0.545,0.871-0.715c0.367-0.174,0.82-0.26,1.348-0.26
			c0.705,0,1.197,0.193,1.503,0.594c0.339,0.445,0.513,1.088,0.513,1.911v7.518h3.144v-7.714c0-0.744-0.095-1.443-0.283-2.078
			C287.914,16.155,287.603,15.576,287.185,15.102z"/>
		<path fill="#404042" d="M221.151,15.592c-0.529-0.566-1.168-0.998-1.902-1.299c-1.494-0.602-3.422-0.578-4.932,0.039
			c-0.779,0.316-1.461,0.77-2.029,1.349c-0.566,0.576-1.014,1.271-1.334,2.076c-0.313,0.797-0.476,1.679-0.476,2.63
			c0,0.885,0.146,1.738,0.437,2.521c0.29,0.785,0.711,1.488,1.253,2.07c0.54,0.598,1.211,1.059,1.989,1.408
			c0.779,0.35,1.664,0.525,2.628,0.525c1.139,0,2.164-0.197,3.041-0.574c0.891-0.381,1.715-1.059,2.45-1.994l0.281-0.373
			l-2.17-1.689l-0.284,0.352c-0.417,0.527-0.892,0.93-1.406,1.186c-0.507,0.271-1.152,0.4-1.913,0.4
			c-0.458,0-0.887-0.096-1.271-0.254c-0.388-0.176-0.732-0.422-1.018-0.703c-0.29-0.303-0.531-0.656-0.712-1.057
			c-0.117-0.252-0.197-0.506-0.252-0.779h9.26v-1.064c0-1.004-0.141-1.913-0.421-2.714
			C222.088,16.849,221.677,16.155,221.151,15.592z M219.764,18.882h-6.201c0.165-0.633,0.477-1.15,0.936-1.566
			c0.577-0.516,1.326-0.768,2.287-0.768c0.953,0,1.672,0.242,2.196,0.756C219.409,17.72,219.665,18.237,219.764,18.882z"/>
		<path fill="#404042" d="M237.407,15.718c-0.568-0.581-1.264-1.046-2.067-1.374c-1.556-0.631-3.598-0.693-5.161,0.076
			c-0.44,0.215-0.85,0.49-1.227,0.807v-1.074h-2.841v18.08h2.841v-6.857c0.305,0.283,0.667,0.557,1.076,0.787
			c0.85,0.5,1.842,0.75,2.954,0.75c0.865,0,1.689-0.174,2.451-0.5c0.763-0.328,1.432-0.785,1.989-1.365
			c0.556-0.598,1-1.283,1.315-2.084c0.316-0.783,0.478-1.662,0.478-2.576c0-0.93-0.161-1.808-0.478-2.593
			C238.419,17.001,237.973,16.306,237.407,15.718z M236.229,20.387c0,0.555-0.087,1.062-0.259,1.537
			c-0.165,0.453-0.413,0.857-0.729,1.189c-0.318,0.348-0.705,0.607-1.147,0.807c-0.883,0.398-2.128,0.398-3.011,0
			c-0.443-0.199-0.829-0.459-1.147-0.807c-0.314-0.332-0.561-0.734-0.729-1.189c-0.169-0.475-0.254-0.982-0.254-1.537
			c0-0.553,0.085-1.078,0.254-1.534c0.168-0.463,0.415-0.867,0.729-1.207c0.319-0.34,0.706-0.607,1.147-0.807
			c0.442-0.191,0.948-0.291,1.505-0.291c0.56,0,1.065,0.1,1.505,0.291c0.442,0.199,0.829,0.467,1.147,0.807
			c0.316,0.34,0.564,0.746,0.729,1.207C236.142,19.309,236.229,19.834,236.229,20.387z"/>
		<rect x="241.882" y="14.154" fill="#404042" width="2.838" height="12.457"/>
		<path fill="#404042" d="M241.974,8.788c-0.355,0.367-0.537,0.807-0.537,1.301c0,0.539,0.179,0.992,0.531,1.334
			c0.349,0.352,0.799,0.529,1.334,0.529c0.535,0,0.984-0.176,1.333-0.529c0.352-0.342,0.529-0.795,0.529-1.334
			c0-0.494-0.18-0.934-0.536-1.301C243.908,8.046,242.695,8.046,241.974,8.788z"/>
		<path fill="#404042" d="M272.527,15.592c-0.529-0.566-1.168-0.998-1.902-1.299c-1.492-0.602-3.422-0.578-4.933,0.039
			c-0.777,0.316-1.461,0.77-2.027,1.349c-0.567,0.576-1.016,1.271-1.334,2.076c-0.314,0.797-0.475,1.679-0.475,2.63
			c0,0.885,0.146,1.738,0.434,2.521c0.292,0.785,0.713,1.488,1.255,2.07c0.54,0.598,1.21,1.059,1.989,1.408
			c0.777,0.35,1.663,0.525,2.627,0.525c1.141,0,2.164-0.197,3.043-0.574c0.889-0.381,1.714-1.059,2.449-1.994l0.279-0.373
			l-2.17-1.689l-0.283,0.352c-0.418,0.527-0.891,0.93-1.405,1.186c-0.509,0.271-1.153,0.4-1.913,0.4
			c-0.46,0-0.887-0.096-1.271-0.254c-0.388-0.176-0.731-0.422-1.019-0.703c-0.291-0.303-0.53-0.656-0.713-1.057
			c-0.111-0.252-0.198-0.506-0.252-0.779h9.262v-1.064c0-1.004-0.143-1.913-0.42-2.714
			C273.463,16.849,273.052,16.155,272.527,15.592z M271.139,18.882h-6.2c0.167-0.633,0.475-1.15,0.938-1.566
			c0.575-0.516,1.323-0.768,2.284-0.768c0.953,0,1.673,0.242,2.198,0.756C270.784,17.72,271.041,18.237,271.139,18.882z"/>
		<path fill="#404042" d="M312.379,15.592c-0.529-0.566-1.168-0.998-1.901-1.299c-1.495-0.602-3.423-0.578-4.935,0.039
			c-0.777,0.316-1.458,0.77-2.026,1.349c-0.568,0.576-1.016,1.271-1.335,2.076c-0.314,0.797-0.476,1.679-0.476,2.63
			c0,0.885,0.146,1.738,0.437,2.521c0.289,0.785,0.712,1.488,1.252,2.07c0.541,0.598,1.213,1.059,1.99,1.408
			s1.664,0.525,2.625,0.525c1.145,0,2.166-0.197,3.045-0.574c0.889-0.381,1.715-1.059,2.449-1.994l0.279-0.373l-2.169-1.689
			l-0.282,0.352c-0.42,0.527-0.893,0.93-1.407,1.186c-0.507,0.271-1.151,0.4-1.914,0.4c-0.458,0-0.884-0.096-1.271-0.254
			c-0.387-0.176-0.73-0.422-1.017-0.703c-0.292-0.303-0.53-0.656-0.711-1.057c-0.116-0.252-0.199-0.506-0.252-0.779h9.259v-1.064
			c0-1.004-0.141-1.913-0.419-2.714C313.314,16.849,312.904,16.155,312.379,15.592z M310.99,18.882h-6.2
			c0.165-0.633,0.474-1.15,0.937-1.566c0.576-0.516,1.325-0.768,2.283-0.768c0.957,0,1.676,0.242,2.199,0.756
			C310.636,17.72,310.893,18.237,310.99,18.882z"/>
		<polygon fill="#404042" points="296.943,14.186 296.943,10.612 296.684,10.612 293.799,10.188 293.799,14.186 290.229,14.186
			290.229,17.036 293.799,17.036 293.799,26.912 296.943,26.912 296.943,17.036 300.27,17.036 300.27,14.186 		"/>
	</g>
	<g>
		<g>
			<path fill="#404042" d="M20.65,15.554c-0.553-0.569-1.229-1.02-2.011-1.337c-1.513-0.616-3.499-0.677-5.016,0.074
				c-0.389,0.192-0.755,0.428-1.095,0.703v-0.684H9.677v17.643h2.852v-6.935c0.276,0.25,0.592,0.478,0.947,0.683
				c0.825,0.479,1.792,0.721,2.874,0.721c0.84,0,1.642-0.161,2.382-0.48c0.74-0.318,1.391-0.769,1.933-1.337
				c0.54-0.565,0.97-1.242,1.278-2.011c0.307-0.77,0.463-1.614,0.463-2.513s-0.156-1.743-0.463-2.513
				C21.634,16.799,21.2,16.121,20.65,15.554z M19.412,20.081c0,0.523-0.082,1.013-0.243,1.454c-0.158,0.434-0.391,0.816-0.69,1.137
				c-0.3,0.32-0.665,0.576-1.084,0.763c-0.831,0.367-2.017,0.367-2.848,0c-0.42-0.187-0.785-0.442-1.084-0.763
				c-0.3-0.321-0.533-0.703-0.69-1.137c-0.162-0.44-0.243-0.93-0.243-1.454s0.082-1.014,0.243-1.455
				c0.158-0.433,0.39-0.814,0.69-1.136c0.3-0.32,0.665-0.577,1.084-0.763c0.416-0.184,0.895-0.277,1.424-0.277
				s1.008,0.094,1.424,0.277c0.418,0.186,0.783,0.442,1.084,0.763c0.3,0.32,0.533,0.703,0.691,1.136
				C19.33,19.068,19.412,19.558,19.412,20.081z"/>
			<polygon fill="#404042" points="51.194,21.497 48.641,14.311 45.977,14.311 43.467,21.491 41.249,14.311 38.146,14.311
				42.08,26.137 44.705,26.137 47.194,18.825 50.001,26.137 52.542,26.137 56.449,14.311 53.394,14.311 			"/>
			<path fill="#404042" d="M67.772,15.43c-0.515-0.549-1.138-0.974-1.852-1.262c-1.455-0.586-3.328-0.563-4.792,0.037
				c-0.756,0.31-1.42,0.751-1.971,1.311c-0.551,0.559-0.987,1.238-1.296,2.02c-0.307,0.775-0.463,1.633-0.463,2.546
				c0,0.862,0.142,1.688,0.423,2.451c0.283,0.771,0.693,1.451,1.218,2.019c0.527,0.571,1.178,1.03,1.934,1.365
				c0.757,0.336,1.616,0.506,2.553,0.506c1.106,0,2.099-0.186,2.952-0.552c0.867-0.372,1.668-1.026,2.382-1.945l0.306-0.395
				l-2.184-1.702l-0.309,0.386c-0.396,0.496-0.845,0.875-1.333,1.126c-0.481,0.247-1.091,0.372-1.814,0.372
				c-0.434,0-0.837-0.081-1.197-0.241c-0.369-0.164-0.692-0.388-0.962-0.665c-0.274-0.28-0.5-0.615-0.674-0.998
				c-0.097-0.212-0.171-0.432-0.223-0.657h8.898v-1.093c0-0.97-0.137-1.852-0.408-2.624C68.685,16.651,68.285,15.978,67.772,15.43z
				 M66.323,18.584h-5.818c0.162-0.569,0.447-1.033,0.864-1.408c0.542-0.488,1.248-0.726,2.158-0.726
				c0.902,0,1.581,0.233,2.073,0.713C65.984,17.537,66.223,18.006,66.323,18.584z"/>
			<path fill="#404042" d="M90.58,15.43c-0.515-0.549-1.138-0.974-1.852-1.262c-1.456-0.586-3.327-0.563-4.792,0.037
				c-0.756,0.31-1.42,0.751-1.971,1.311c-0.551,0.559-0.987,1.238-1.296,2.02c-0.307,0.775-0.463,1.633-0.463,2.546
				c0,0.862,0.142,1.688,0.423,2.451c0.283,0.771,0.693,1.451,1.218,2.019c0.527,0.571,1.178,1.03,1.934,1.365
				c0.757,0.336,1.616,0.506,2.553,0.506c1.106,0,2.099-0.186,2.952-0.552c0.867-0.372,1.668-1.026,2.382-1.945l0.306-0.395
				l-2.184-1.702l-0.309,0.386c-0.396,0.496-0.845,0.875-1.333,1.126c-0.481,0.247-1.091,0.372-1.814,0.372
				c-0.434,0-0.837-0.081-1.197-0.241c-0.369-0.164-0.692-0.388-0.962-0.665c-0.274-0.28-0.5-0.615-0.674-0.998
				c-0.097-0.212-0.171-0.432-0.223-0.657h8.898v-1.093c0-0.97-0.137-1.852-0.408-2.624C91.492,16.651,91.093,15.978,90.58,15.43z
				 M89.13,18.584h-5.818c0.162-0.569,0.447-1.033,0.864-1.408c0.542-0.488,1.248-0.726,2.158-0.726
				c0.902,0,1.581,0.233,2.073,0.713C88.792,17.537,89.031,18.006,89.13,18.584z"/>
			<path fill="#404042" d="M103.973,14.994c-0.34-0.276-0.706-0.511-1.095-0.703c-1.519-0.752-3.504-0.69-5.016-0.074
				c-0.782,0.317-1.458,0.768-2.01,1.337c-0.55,0.567-0.984,1.245-1.292,2.015c-0.308,0.769-0.463,1.614-0.463,2.513
				s0.156,1.744,0.463,2.513c0.307,0.769,0.737,1.444,1.277,2.012c0.543,0.568,1.194,1.018,1.933,1.336
				c0.74,0.319,1.541,0.48,2.382,0.48c1.082,0,2.048-0.242,2.874-0.721c0.355-0.205,0.671-0.433,0.948-0.683v1.118h2.852V8.533
				h-2.852V14.994z M99.108,23.435c-0.425-0.188-0.78-0.438-1.084-0.763c-0.3-0.321-0.533-0.703-0.69-1.137
				c-0.161-0.439-0.243-0.93-0.243-1.454s0.082-1.015,0.243-1.455c0.158-0.433,0.39-0.814,0.69-1.136
				c0.301-0.321,0.666-0.577,1.084-0.763c0.415-0.184,0.894-0.277,1.423-0.277s1.008,0.094,1.424,0.277
				c0.419,0.186,0.784,0.442,1.084,0.763s0.533,0.703,0.691,1.136c0.161,0.442,0.243,0.932,0.243,1.455s-0.082,1.013-0.243,1.454
				c-0.158,0.434-0.391,0.816-0.691,1.137c-0.299,0.32-0.664,0.576-1.084,0.763C101.125,23.802,99.939,23.802,99.108,23.435z"/>
			<path fill="#404042" d="M128.1,15.554c-0.553-0.569-1.229-1.02-2.011-1.337c-1.513-0.616-3.499-0.677-5.016,0.074
				c-0.389,0.192-0.755,0.427-1.095,0.703V8.533h-2.852v17.604h2.852v-1.118c0.276,0.25,0.592,0.478,0.947,0.683
				c0.825,0.479,1.792,0.721,2.874,0.721c0.84,0,1.642-0.161,2.382-0.48c0.74-0.318,1.391-0.769,1.933-1.337
				c0.54-0.565,0.97-1.242,1.278-2.011c0.307-0.77,0.463-1.614,0.463-2.513s-0.156-1.743-0.463-2.513
				C129.083,16.799,128.649,16.121,128.1,15.554z M126.861,20.081c0,0.523-0.082,1.013-0.243,1.454
				c-0.158,0.434-0.391,0.816-0.69,1.137c-0.3,0.32-0.665,0.576-1.084,0.763c-0.831,0.367-2.017,0.367-2.848,0
				c-0.42-0.187-0.785-0.442-1.084-0.763c-0.3-0.321-0.533-0.703-0.69-1.137c-0.162-0.44-0.243-0.93-0.243-1.454
				s0.082-1.014,0.243-1.455c0.158-0.433,0.39-0.814,0.69-1.136c0.3-0.32,0.665-0.577,1.084-0.763
				c0.416-0.184,0.895-0.277,1.424-0.277s1.008,0.094,1.424,0.277c0.418,0.186,0.783,0.442,1.084,0.763
				c0.3,0.32,0.533,0.703,0.691,1.136C126.779,19.068,126.861,19.558,126.861,20.081z"/>
			<path fill="#404042" d="M140.002,14.025l-2.988,7.889l-3.117-7.889h-3.247l4.816,11.693l-0.692,1.904
				c-0.184,0.497,2.498,1.221,2.691,0.736l5.634-14.334H140.002z"/>
		</g>
		<path fill="#404042" d="M158.884,11.484c-0.27-0.074-0.662-0.124-0.957-0.124c-0.787,0-1.402,0.222-1.795,0.688
			c-0.271,0.345-0.443,0.787-0.443,1.893v0.369h3.688v2.705l-3.688-0.001v9.218h-3.196v-9.219h-3.073V14.31l3.073,0.001v-0.492
			c0-1.918,0.443-3.072,1.278-3.885c0.837-0.812,2.09-1.4,3.714-1.4c0.639,0,1.229,0.049,1.893,0.223L158.884,11.484z"/>
		<path fill="#404042" d="M167.014,14.066c3.613,0,6.343,2.777,6.343,6.221c0,3.441-2.729,6.195-6.343,6.193
			c-3.614,0-6.342-2.754-6.342-6.195S163.4,14.065,167.014,14.066z M167.014,23.531c1.868,0,3.146-1.451,3.146-3.244
			c0-1.795-1.278-3.271-3.146-3.271c-1.869,0-3.146,1.477-3.146,3.27C163.868,22.08,165.145,23.531,167.014,23.531z"/>
		<path fill="#404042" d="M30.761,14.008c3.613,0,6.343,2.777,6.343,6.221c0,3.441-2.729,6.195-6.343,6.193
			c-3.614,0-6.342-2.754-6.342-6.195S27.146,14.007,30.761,14.008z M30.761,23.473c1.868,0,3.146-1.451,3.146-3.244
			c0-1.795-1.278-3.271-3.146-3.271c-1.869,0-3.146,1.477-3.146,3.27C27.614,22.021,28.892,23.473,30.761,23.473z"/>
		<path fill="#404042" d="M183.083,17.143c-0.222-0.074-0.69-0.125-1.156-0.125c-1.401,0-2.508,1.009-2.9,1.723v7.498l-3.195-0.002
			V14.313h3.073v1.204c0.712-0.885,2.015-1.447,3.465-1.447c0.467,0,0.738,0.047,1.081,0.096L183.083,17.143z"/>
		<path fill="#404042" d="M79.086,17.041c-0.222-0.074-0.69-0.125-1.156-0.125c-1.401,0-2.508,1.009-2.9,1.723v7.498l-3.195-0.002
			V14.312h3.073v1.104c0.712-0.885,2.015-1.447,3.465-1.447c0.467,0,0.738,0.047,1.081,0.096L79.086,17.041z"/>
		<path fill="#404042" d="M187.481,8.047c1.157,0,2.09,0.884,2.09,2.04c0,1.155-0.933,2.039-2.09,2.039
			c-1.154,0-2.089-0.884-2.089-2.039C185.392,8.931,186.327,8.047,187.481,8.047z M189.08,26.238h-3.194V14.314h3.194V26.238z"/>
		<path fill="#404042" d="M197.824,14.07c3.612,0,6.342,2.779,6.342,6.221c0,3.443-2.729,6.195-6.342,6.195
			c-3.613-0.002-6.345-2.756-6.345-6.197S194.21,14.07,197.824,14.07z M197.824,23.537c1.868,0,3.146-1.451,3.146-3.246
			s-1.278-3.271-3.146-3.271s-3.147,1.477-3.147,3.271S195.956,23.537,197.824,23.537z"/>
		<polygon fill="#404042" points="136.1,31.953 133.002,31.953 140.002,14.025 143.1,14.025 		"/>
	</g>
</g>
</svg>
